<svg width="22" height="22" viewBox="0 0 22 22" fill="none" xmlns="http://www.w3.org/2000/svg">
<path d="M0 10.9897C0 10.7413 0.0828625 10.524 0.258945 10.3481C0.435028 10.1825 0.652542 10.0997 0.880414 10.0997H2.99341C3.23164 10.0997 3.42844 10.1825 3.59416 10.3584C3.74953 10.5343 3.83239 10.7413 3.83239 10.9897C3.83239 11.238 3.75989 11.445 3.60452 11.6209C3.44915 11.7968 3.242 11.8796 3.00377 11.8796H0.890772C0.652542 11.8796 0.445386 11.7968 0.269303 11.6209C0.0932206 11.445 0 11.238 0 10.9897ZM2.96234 18.1609C2.96234 17.9229 3.0452 17.7159 3.20057 17.5296L4.72316 16.0499C4.87853 15.8843 5.08569 15.8119 5.33428 15.8119C5.58286 15.8119 5.79002 15.8946 5.95574 16.0499C6.12147 16.2051 6.20433 16.4017 6.20433 16.6397C6.20433 16.8881 6.12147 17.1157 5.95574 17.302L4.48493 18.7714C4.06026 19.1025 3.63559 19.1025 3.21092 18.7714C3.0452 18.6058 2.96234 18.3989 2.96234 18.1609ZM2.96234 3.83913C2.96234 3.60113 3.0452 3.39417 3.20057 3.2079C3.40772 3.03198 3.62524 2.9492 3.86347 2.9492C4.09134 2.9492 4.29849 3.03198 4.47458 3.19755L5.95574 4.71872C6.12147 4.87394 6.20433 5.0809 6.20433 5.32926C6.20433 5.57761 6.12147 5.78457 5.95574 5.95014C5.79002 6.11571 5.58286 6.19849 5.33428 6.19849C5.08569 6.19849 4.87853 6.11571 4.72316 5.95014L3.21092 4.47037C3.0452 4.3048 2.96234 4.08749 2.96234 3.83913ZM5.60358 10.9897C5.60358 10.0273 5.84181 9.127 6.32862 8.29915C6.81544 7.47131 7.46799 6.80903 8.30697 6.32267C9.14595 5.83631 10.0367 5.59831 11 5.59831C11.725 5.59831 12.419 5.74318 13.0923 6.03293C13.7552 6.32267 14.3352 6.70555 14.8117 7.19191C15.2985 7.67827 15.6817 8.24741 15.9614 8.90969C16.2411 9.57197 16.3861 10.2756 16.3861 11C16.3861 11.9727 16.1478 12.873 15.661 13.7008C15.1742 14.5287 14.5217 15.1806 13.693 15.667C12.8644 16.1533 11.9633 16.3913 10.9896 16.3913C10.016 16.3913 9.11488 16.1533 8.28625 15.667C7.45763 15.1806 6.80508 14.5287 6.31827 13.7008C5.85217 12.8627 5.60358 11.9624 5.60358 10.9897ZM7.36441 10.9897C7.36441 12.0038 7.71657 12.8627 8.43126 13.5767C9.13559 14.2907 9.99529 14.6529 11.0104 14.6529C12.0254 14.6529 12.8851 14.2907 13.5998 13.5767C14.3145 12.8627 14.677 12.0038 14.677 10.9897C14.677 9.99624 14.3145 9.14769 13.5998 8.43368C12.8851 7.73001 12.0254 7.37817 11.0104 7.37817C10.0056 7.37817 9.14595 7.73001 8.44162 8.43368C7.71657 9.14769 7.36441 9.99624 7.36441 10.9897ZM10.1196 19.0404C10.1196 18.7921 10.2024 18.5851 10.3785 18.4196C10.5546 18.254 10.7618 18.1712 11 18.1712C11.2486 18.1712 11.4661 18.254 11.6318 18.4196C11.7976 18.5851 11.8804 18.7921 11.8804 19.0404V21.0997C11.8804 21.3481 11.7976 21.5654 11.6215 21.7413C11.4454 21.9172 11.2382 22 11 22C10.7618 22 10.5443 21.9172 10.3785 21.7413C10.2024 21.5654 10.1196 21.3481 10.1196 21.0997V19.0404ZM10.1196 3.00094V0.889934C10.1196 0.651929 10.2024 0.444967 10.3785 0.26905C10.5546 0.0931329 10.7618 0 11.0104 0C11.2589 0 11.4557 0.0827846 11.6318 0.258702C11.8079 0.434619 11.8908 0.64158 11.8908 0.879586V3.00094C11.8908 3.23895 11.8079 3.43556 11.6318 3.60113C11.4557 3.7667 11.2486 3.83913 11.0104 3.83913C10.7721 3.83913 10.5546 3.75635 10.3889 3.60113C10.2232 3.44591 10.1196 3.23895 10.1196 3.00094ZM15.8371 16.6397C15.8371 16.4017 15.92 16.2051 16.0753 16.0602C16.2307 15.8946 16.4275 15.8222 16.6554 15.8222C16.904 15.8222 17.1111 15.905 17.2768 16.0602L18.7891 17.54C18.9548 17.7159 19.0377 17.9332 19.0377 18.1712C19.0377 18.4092 18.9548 18.6162 18.7891 18.7817C18.3748 19.1025 17.9604 19.1025 17.5461 18.7817L16.0753 17.3123C15.92 17.1261 15.8371 16.9087 15.8371 16.6397ZM15.8371 5.3396C15.8371 5.0809 15.92 4.87394 16.0753 4.72907L17.5461 3.2079C17.7222 3.04233 17.9294 2.95955 18.1572 2.95955C18.4058 2.95955 18.613 3.04233 18.7787 3.21825C18.9548 3.39417 19.0377 3.60113 19.0377 3.83913C19.0377 4.09784 18.9548 4.31515 18.7891 4.48071L17.2768 5.96049C17.0904 6.12606 16.8832 6.20884 16.6554 6.20884C16.4171 6.20884 16.2307 6.12606 16.0753 5.96049C15.92 5.79492 15.8371 5.58796 15.8371 5.3396ZM18.178 10.9897C18.178 10.7413 18.2608 10.5343 18.4266 10.3481C18.5923 10.1825 18.7891 10.0997 19.0169 10.0997H21.1092C21.3475 10.0997 21.5546 10.1929 21.7307 10.3688C21.9068 10.5447 22 10.7516 22 10.9897C22 11.2277 21.9068 11.4346 21.7307 11.6105C21.5546 11.7865 21.3475 11.8692 21.1092 11.8692H19.0169C18.7787 11.8692 18.5716 11.7865 18.4162 11.6105C18.2608 11.4346 18.178 11.238 18.178 10.9897Z" fill="black"/>
</svg>
