<svg width="22" height="15" viewBox="0 0 22 15" fill="none" xmlns="http://www.w3.org/2000/svg">
<path d="M0.609863 9.87989C0.609863 8.72989 0.969863 7.70989 1.68986 6.80989C2.40986 5.90989 3.31986 5.32989 4.42986 5.07989C4.73986 3.70989 5.44986 2.58989 6.53986 1.70989C7.62986 0.829893 8.88986 0.389893 10.2999 0.389893C11.6799 0.389893 12.9099 0.819893 13.9899 1.66989C15.0699 2.51989 15.7699 3.61989 16.0899 4.95989H16.4199C17.3199 4.95989 18.1499 5.17989 18.9099 5.60989C19.6699 6.03989 20.2799 6.63989 20.7199 7.39989C21.1599 8.15989 21.3899 8.97989 21.3899 9.87989C21.3899 10.7599 21.1799 11.5799 20.7599 12.3299C20.3399 13.0799 19.7599 13.6799 19.0299 14.1299C18.2999 14.5799 17.4899 14.8199 16.6199 14.8499H5.40986C4.06986 14.7899 2.93986 14.2799 2.00986 13.3199C1.07986 12.3699 0.609863 11.2199 0.609863 9.87989ZM2.31986 9.87989C2.31986 10.7499 2.61986 11.4999 3.21986 12.1399C3.81986 12.7799 4.54986 13.1199 5.40986 13.1699H16.5999C17.4599 13.1299 18.1899 12.7799 18.7899 12.1399C19.3999 11.4999 19.6999 10.7399 19.6999 9.87989C19.6999 8.99989 19.3699 8.24989 18.7199 7.60989C18.0699 6.96989 17.2999 6.64989 16.3999 6.64989H14.7999C14.6899 6.64989 14.6299 6.58989 14.6299 6.46989L14.5599 5.89989C14.4499 4.81989 13.9799 3.90989 13.1599 3.17989C12.3399 2.44989 11.3899 2.07989 10.2999 2.07989C9.20986 2.07989 8.24986 2.44989 7.44986 3.17989C6.63986 3.90989 6.17986 4.81989 6.07986 5.89989L5.99986 6.46989C5.99986 6.58989 5.92986 6.64989 5.79986 6.64989H5.26986C4.42986 6.74989 3.72986 7.10989 3.16986 7.71989C2.60986 8.32989 2.31986 9.04989 2.31986 9.87989Z" fill="black"/>
</svg>
