<svg width="22" height="22" viewBox="0 0 22 22" fill="none" xmlns="http://www.w3.org/2000/svg">
<path d="M1 13.8444C1 12.6515 1.34649 11.5934 2.03946 10.6598C2.73244 9.72614 3.60828 9.12448 4.67661 8.86514C4.97498 7.44398 5.65833 6.28216 6.70741 5.36929C7.7565 4.45643 8.9692 4 10.3263 4C11.6545 4 12.8383 4.44606 13.8778 5.3278C14.9172 6.20954 15.591 7.35062 15.8989 8.74066H16.2166C17.0828 8.74066 17.8816 8.96888 18.6131 9.41494C19.3446 9.861 19.9317 10.4834 20.3551 11.2718C20.7786 12.0602 21 12.9108 21 13.8444C21 14.7573 20.7979 15.6079 20.3936 16.3859C19.9894 17.1639 19.4312 17.7863 18.7286 18.2531C18.026 18.7199 17.2464 18.9689 16.409 19H5.61983C4.33013 18.9378 3.24254 18.4087 2.34745 17.4129C1.45236 16.4274 1 15.2344 1 13.8444ZM2.64581 13.8444C2.64581 14.7469 2.93455 15.5249 3.51203 16.1888C4.08951 16.8527 4.79211 17.2054 5.61983 17.2573H16.3898C17.2175 17.2158 17.9201 16.8527 18.4976 16.1888C19.0847 15.5249 19.3734 14.7365 19.3734 13.8444C19.3734 12.9315 19.0558 12.1535 18.4302 11.4896C17.8046 10.8257 17.0635 10.4938 16.1973 10.4938H14.6574C14.5515 10.4938 14.4937 10.4315 14.4937 10.3071L14.4264 9.71577C14.3205 8.59544 13.8681 7.65145 13.0789 6.89419C12.2897 6.13693 11.3754 5.75311 10.3263 5.75311C9.27719 5.75311 8.35322 6.13693 7.58325 6.89419C6.80366 7.65145 6.36092 8.59544 6.26468 9.71577L6.18768 10.3071C6.18768 10.4315 6.12031 10.4938 5.99519 10.4938H5.48508C4.67661 10.5975 4.00289 10.971 3.46391 11.6037C2.92493 12.2365 2.64581 12.9834 2.64581 13.8444Z" fill="black"/>
</svg>
