<svg width="25" height="22" viewBox="0 0 25 22" fill="none" xmlns="http://www.w3.org/2000/svg">
<path d="M0 15.9875C0 15.7412 0.08 15.5257 0.25 15.3615C0.42 15.1973 0.63 15.1152 0.88 15.1152H19.55C19.8 15.1152 20 15.1973 20.16 15.3615C20.32 15.5257 20.4 15.7309 20.4 15.9875C20.4 16.2235 20.32 16.4287 20.15 16.5827C19.98 16.7469 19.78 16.8187 19.55 16.8187H0.88C0.63 16.8187 0.42 16.7366 0.25 16.5827C0.08 16.4185 0 16.2235 0 15.9875ZM2.62 12.7651C2.62 12.5188 2.71 12.3136 2.88 12.1494C3.03 11.9954 3.23 11.9133 3.47 11.9133H22.14C22.37 11.9133 22.56 11.9954 22.72 12.1596C22.88 12.3238 22.95 12.5188 22.95 12.7651C22.95 13.0114 22.87 13.2166 22.72 13.3808C22.56 13.5553 22.37 13.6374 22.14 13.6374H3.47C3.23 13.6374 3.03 13.5553 2.87 13.3808C2.7 13.2064 2.62 13.0011 2.62 12.7651ZM2.75 10.3124C2.75 10.4048 2.8 10.4458 2.9 10.4458H4.33C4.39 10.4458 4.46 10.3945 4.53 10.2816C4.77 9.748 5.12 9.31699 5.59 8.97834C6.06 8.63968 6.58 8.4447 7.14 8.40365L7.69 8.33181C7.8 8.33181 7.86 8.27024 7.86 8.14709L7.93 7.63398C8.04 6.52566 8.49 5.60205 9.3 4.86317C10.11 4.12429 11.06 3.75485 12.15 3.75485C13.23 3.75485 14.17 4.12429 14.98 4.85291C15.78 5.58153 16.24 6.50513 16.35 7.60319L16.43 8.18814C16.43 8.30103 16.5 8.3626 16.63 8.3626H18.22C18.86 8.3626 19.45 8.53706 19.98 8.89624C20.51 9.25542 20.9 9.71722 21.16 10.3022C21.23 10.4151 21.3 10.4664 21.37 10.4664H22.8C22.92 10.4664 22.97 10.3945 22.94 10.2303C22.65 9.18358 22.06 8.32155 21.2 7.6545C20.33 6.98746 19.34 6.65907 18.23 6.65907H17.91C17.58 5.29418 16.88 4.1756 15.81 3.30331C14.74 2.43101 13.53 2 12.16 2C10.76 2 9.52 2.45154 8.43 3.35462C7.34 4.2577 6.65 5.40707 6.34 6.80274C5.49 7.00798 4.74 7.41847 4.1 8.04447C3.46 8.67047 3.01 9.40935 2.76 10.2816V10.2406C2.75 10.2406 2.75 10.2714 2.75 10.3124ZM4.36 19.1277C4.36 18.8814 4.45 18.6864 4.62 18.5222C4.77 18.3683 4.97 18.2862 5.22 18.2862H23.9C24.14 18.2862 24.34 18.3683 24.5 18.5222C24.67 18.6864 24.75 18.8814 24.75 19.1174C24.75 19.3637 24.67 19.569 24.5 19.7434C24.33 19.9179 24.13 20 23.9 20H5.22C4.99 20 4.79 19.9076 4.62 19.7332C4.45 19.5792 4.36 19.3637 4.36 19.1277Z" fill="black"/>
</svg>
