<svg width="28" height="22" viewBox="0 0 28 22" fill="none" xmlns="http://www.w3.org/2000/svg">
<path d="M0.560059 16.8999C0.560059 17.7999 0.780059 18.6299 1.22006 19.3899C1.66006 20.1499 2.26006 20.7499 3.02006 21.1899C3.78006 21.6299 4.60006 21.8499 5.49006 21.8499H16.3201C17.2101 21.8499 18.0401 21.6299 18.8001 21.1899C19.5601 20.7499 20.1701 20.1499 20.6101 19.3899C21.0501 18.6299 21.2801 17.7999 21.2801 16.8999C21.2801 16.2399 21.1401 15.5699 20.8601 14.8999C21.6201 13.9799 22.0001 12.8699 22.0001 11.5999C22.0001 10.8899 21.8601 10.2099 21.5901 9.55991C21.3201 8.90991 20.9401 8.35991 20.4701 7.88991C20.0001 7.41991 19.4501 7.03991 18.8001 6.76991C18.1501 6.48991 17.4701 6.35991 16.7601 6.35991C15.2801 6.35991 13.9901 6.93991 12.8801 8.09991C12.1101 7.65991 11.2101 7.43991 10.1801 7.43991C8.77006 7.43991 7.53006 7.87991 6.45006 8.74991C5.37006 9.61991 4.67006 10.7399 4.37006 12.0999C3.25006 12.3599 2.34006 12.9299 1.63006 13.8299C0.920059 14.7299 0.560059 15.7499 0.560059 16.8999ZM2.27006 16.8999C2.27006 16.0599 2.55006 15.3399 3.11006 14.7299C3.67006 14.1199 4.37006 13.7699 5.21006 13.6699L5.71006 13.6399C5.83006 13.6399 5.90006 13.5799 5.90006 13.4599L5.97006 12.9199C6.11006 11.8399 6.58006 10.9299 7.38006 10.2099C8.18006 9.47991 9.12006 9.11991 10.1901 9.11991C11.2901 9.11991 12.2501 9.48991 13.0601 10.2199C13.8801 10.9499 14.3301 11.8499 14.4301 12.9299L14.5001 13.5099C14.5201 13.6199 14.5901 13.6799 14.7101 13.6799H16.3201C17.2001 13.6799 17.9601 13.9999 18.6001 14.6399C19.2401 15.2799 19.5601 16.0299 19.5601 16.9099C19.5601 17.8199 19.2401 18.5899 18.6101 19.2299C17.9801 19.8699 17.2101 20.1899 16.3301 20.1899H5.49006C4.61006 20.1899 3.86006 19.8699 3.22006 19.2199C2.59006 18.5699 2.27006 17.7999 2.27006 16.8999ZM8.97006 4.62991C8.97006 4.86991 9.05006 5.07991 9.21006 5.25991L9.87006 5.89991C10.1201 6.08991 10.3301 6.16991 10.5101 6.14991C10.7201 6.14991 10.9001 6.05991 11.0601 5.88991C11.2201 5.71991 11.3001 5.50991 11.3001 5.26991C11.3001 5.02991 11.2101 4.82991 11.0401 4.67991L10.4501 4.01991C10.2701 3.85991 10.0701 3.77991 9.84006 3.77991C9.60006 3.77991 9.39006 3.85991 9.22006 4.02991C9.05006 4.18991 8.97006 4.38991 8.97006 4.62991ZM14.3101 9.05991C15.0001 8.38991 15.8201 8.05991 16.7601 8.05991C17.7501 8.05991 18.5901 8.39991 19.2801 9.08991C19.9701 9.77991 20.3201 10.6099 20.3201 11.5999C20.3201 12.2199 20.1501 12.8399 19.8101 13.4399C18.8401 12.4799 17.6801 11.9999 16.3201 11.9999H16.0001C15.7501 10.9099 15.1901 9.92991 14.3101 9.05991ZM15.9401 3.77991C15.9401 4.03991 16.0201 4.23991 16.1701 4.39991C16.3201 4.55991 16.5201 4.62991 16.7601 4.62991C17.0201 4.62991 17.2201 4.54991 17.3801 4.39991C17.5401 4.23991 17.6101 4.03991 17.6101 3.77991V1.72991C17.6101 1.48991 17.5301 1.29991 17.3701 1.13991C17.2101 0.979912 17.0101 0.909912 16.7601 0.909912C16.5201 0.909912 16.3301 0.989912 16.1701 1.13991C16.0101 1.28991 15.9401 1.48991 15.9401 1.72991V3.77991V3.77991ZM21.4601 6.06991C21.4601 6.32991 21.5301 6.52991 21.6801 6.68991C21.8901 6.84991 22.1001 6.92991 22.3001 6.92991C22.4801 6.92991 22.6801 6.84991 22.8901 6.68991L24.3201 5.25991C24.4801 5.07991 24.5601 4.86991 24.5601 4.61991C24.5601 4.37991 24.4801 4.17991 24.3201 4.01991C24.1601 3.85991 23.9601 3.77991 23.7301 3.77991C23.4901 3.77991 23.3001 3.85991 23.1501 4.01991L21.6801 5.44991C21.5301 5.63991 21.4601 5.83991 21.4601 6.06991ZM22.2501 17.9099C22.2501 18.1499 22.3301 18.3599 22.5001 18.5399L23.1501 19.1699C23.3001 19.3299 23.4901 19.4099 23.7301 19.4099C23.9701 19.4099 24.1701 19.3299 24.3301 19.1599C24.4901 18.9899 24.5701 18.7899 24.5701 18.5399C24.5701 18.3199 24.4901 18.1199 24.3301 17.9599L23.6801 17.3099C23.5201 17.1499 23.3301 17.0699 23.1101 17.0699C22.8701 17.0699 22.6701 17.1499 22.5101 17.3099C22.3401 17.4699 22.2501 17.6699 22.2501 17.9099ZM23.7201 11.5999C23.7201 11.8299 23.8101 12.0199 23.9801 12.1799C24.1401 12.3399 24.3501 12.4199 24.5901 12.4199H26.6301C26.8601 12.4199 27.0501 12.3399 27.2101 12.1899C27.3701 12.0399 27.4401 11.8399 27.4401 11.5999C27.4401 11.3599 27.3601 11.1599 27.2101 10.9999C27.0601 10.8399 26.8601 10.7499 26.6301 10.7499H24.5901C24.3501 10.7499 24.1501 10.8299 23.9801 10.9999C23.8001 11.1699 23.7201 11.3699 23.7201 11.5999Z" fill="black"/>
</svg>
