<svg width="22" height="17" viewBox="0 0 22 17" fill="none" xmlns="http://www.w3.org/2000/svg">
<path d="M0.140137 11.9001C0.140137 10.7401 0.490137 9.72011 1.20014 8.82011C1.91014 7.92011 2.82014 7.35011 3.94014 7.10011C4.17014 6.07011 4.64014 5.17011 5.34014 4.40011C6.04014 3.63011 6.89014 3.08011 7.87014 2.75011C8.49014 2.54011 9.13014 2.43011 9.80014 2.43011C10.6101 2.43011 11.4001 2.59011 12.1501 2.91011C12.4301 2.44011 12.7601 2.03011 13.1401 1.69011C13.5201 1.35011 13.9101 1.08011 14.3101 0.900107C14.7101 0.720107 15.1101 0.580107 15.4901 0.490107C15.8701 0.400107 16.2501 0.360107 16.6101 0.360107C16.9901 0.360107 17.4001 0.410107 17.8401 0.520107L18.6601 0.770107C18.8001 0.830107 18.8401 0.900107 18.8001 0.990107L18.6601 1.59011C18.5901 1.90011 18.5601 2.19011 18.5601 2.45011C18.5601 2.76011 18.6101 3.08011 18.7101 3.40011C18.8101 3.72011 18.9501 4.03011 19.1501 4.34011C19.3401 4.65011 19.6101 4.92011 19.9501 5.17011C20.2901 5.42011 20.6701 5.61011 21.1001 5.74011L21.7201 5.96011C21.8201 5.99011 21.8701 6.04011 21.8701 6.12011C21.8701 6.14011 21.8601 6.16011 21.8501 6.19011L21.6701 6.86011C21.4001 7.94011 20.8901 8.79011 20.1701 9.43011C20.5701 10.1301 20.7901 10.8801 20.8201 11.6701C20.8301 11.7201 20.8301 11.7901 20.8301 11.9001C20.8301 12.7901 20.6101 13.6201 20.1601 14.3801C19.7201 15.1401 19.1101 15.7401 18.3601 16.1801C17.6001 16.6201 16.7701 16.8501 15.8801 16.8501H5.07014C4.18014 16.8501 3.35014 16.6301 2.59014 16.1801C1.83014 15.7301 1.24014 15.1301 0.800137 14.3801C0.360137 13.6301 0.140137 12.8001 0.140137 11.9001ZM1.85014 11.9001C1.85014 12.7901 2.17014 13.5601 2.81014 14.2101C3.45014 14.8601 4.20014 15.1901 5.07014 15.1901H15.8801C16.7701 15.1901 17.5301 14.8701 18.1601 14.2201C18.7901 13.5701 19.1101 12.8001 19.1101 11.9001C19.1101 11.0201 18.7901 10.2701 18.1501 9.64011C17.5101 9.01011 16.7501 8.69011 15.8701 8.69011H14.0901L13.9901 7.94011C13.8901 6.93011 13.4701 6.06011 12.7301 5.35011C11.9901 4.64011 11.1101 4.24011 10.1001 4.15011C10.0701 4.15011 10.0201 4.15011 9.95014 4.14011C9.88014 4.13011 9.84014 4.13011 9.80014 4.13011C9.29014 4.13011 8.78014 4.23011 8.26014 4.42011V4.40011C7.53014 4.68011 6.91014 5.14011 6.42014 5.77011C5.92014 6.40011 5.62014 7.12011 5.52014 7.94011L5.45014 8.66011L4.77014 8.69011C3.93014 8.79011 3.23014 9.14011 2.67014 9.75011C2.11014 10.3601 1.85014 11.0701 1.85014 11.9001ZM13.6001 3.79011C14.6601 4.70011 15.3201 5.76011 15.5701 6.97011H15.8901C17.1301 6.97011 18.1901 7.36011 19.0601 8.15011C19.3901 7.84011 19.6401 7.48011 19.8201 7.08011C18.9101 6.65011 18.1901 5.99011 17.6601 5.11011C17.1401 4.23011 16.8701 3.30011 16.8701 2.33011V2.09011C16.8201 2.08011 16.7401 2.08011 16.6301 2.08011C16.0501 2.07011 15.4801 2.21011 14.9301 2.52011C14.3801 2.82011 13.9301 3.24011 13.6001 3.79011Z" fill="black"/>
</svg>
