<svg width="22" height="22" viewBox="0 0 22 22" fill="none" xmlns="http://www.w3.org/2000/svg">
<path d="M0 14.8969C0 13.701 0.354349 12.6495 1.07317 11.7216C1.79199 10.7938 2.7133 10.2062 3.84722 9.94845C4.08007 8.8866 4.55591 7.95876 5.26461 7.16495C5.97331 6.37113 6.83387 5.80412 7.82605 5.46392C8.45375 5.24742 9.1017 5.13402 9.78003 5.13402C10.6001 5.13402 11.3999 5.29897 12.1592 5.62887C12.4427 5.14433 12.7768 4.72165 13.1615 4.37113C13.5462 4.02062 13.9411 3.74227 14.3461 3.5567C14.751 3.37113 15.156 3.2268 15.5407 3.13402C15.9254 3.04124 16.3102 3 16.6746 3C17.0594 3 17.4745 3.05155 17.9199 3.16495L18.7501 3.42268C18.8919 3.48454 18.9324 3.5567 18.8919 3.64948L18.7501 4.26804C18.6792 4.58763 18.6489 4.8866 18.6489 5.15464C18.6489 5.47423 18.6995 5.80412 18.8007 6.13402C18.902 6.46392 19.0437 6.78351 19.2462 7.10309C19.4386 7.42268 19.7119 7.70103 20.0561 7.95876C20.4004 8.2165 20.7851 8.41237 21.2204 8.54639L21.8481 8.7732C21.9494 8.80412 22 8.85567 22 8.93814C22 8.95876 21.9899 8.97938 21.9798 9.01031L21.7975 9.70103C21.5242 10.8144 21.0078 11.6907 20.2789 12.3505C20.6838 13.0722 20.9066 13.8454 20.937 14.6598C20.9471 14.7113 20.9471 14.7835 20.9471 14.8969C20.9471 15.8144 20.7243 16.6701 20.2688 17.4536C19.8233 18.2371 19.2057 18.8557 18.4464 19.3093C17.6769 19.7629 16.8366 20 15.9356 20H4.99126C4.0902 20 3.24989 19.7732 2.48044 19.3093C1.711 18.8454 1.11367 18.2268 0.668201 17.4536C0.222734 16.6804 0 15.8247 0 14.8969ZM1.73125 14.8969C1.73125 15.8144 2.05522 16.6082 2.70318 17.2783C3.35113 17.9485 4.11045 18.2887 4.99126 18.2887H15.9356C16.8366 18.2887 17.6061 17.9588 18.2439 17.2887C18.8817 16.6186 19.2057 15.8247 19.2057 14.8969C19.2057 13.9897 18.8817 13.2165 18.2338 12.567C17.5858 11.9175 16.8164 11.5876 15.9254 11.5876H14.1233L14.0221 10.8144C13.9208 9.7732 13.4956 8.87629 12.7464 8.14433C11.9972 7.41237 11.1063 7 10.0838 6.90722C10.0534 6.90722 10.0028 6.90722 9.93189 6.89691C9.86102 6.8866 9.82052 6.8866 9.78003 6.8866C9.26369 6.8866 8.74735 6.98969 8.22089 7.18557V7.16495C7.48182 7.45361 6.85412 7.92784 6.35803 8.57732C5.85182 9.2268 5.54809 9.96907 5.44685 10.8144L5.37598 11.5567L4.68753 11.5876C3.83709 11.6907 3.12839 12.0515 2.56144 12.6804C1.99448 13.3093 1.73125 14.0412 1.73125 14.8969ZM13.6272 6.53608C14.7004 7.47423 15.3686 8.56701 15.6217 9.81443H15.9457C17.2011 9.81443 18.2743 10.2165 19.1551 11.0309C19.4892 10.7113 19.7423 10.3402 19.9245 9.92784C19.0032 9.48454 18.2743 8.80412 17.7377 7.89691C17.2112 6.98969 16.9379 6.03093 16.9379 5.03093V4.78351C16.8873 4.7732 16.8063 4.7732 16.6949 4.7732C16.1077 4.76289 15.5306 4.90722 14.9738 5.2268C14.4169 5.53608 13.9613 5.96907 13.6272 6.53608Z" fill="black"/>
</svg>
