<svg width="22" height="22" viewBox="0 0 22 22" fill="none" xmlns="http://www.w3.org/2000/svg">
<path d="M1 10.4417C1 9.29511 1.34732 8.27817 2.04197 7.38086C2.73661 6.48355 3.61457 5.91525 4.67583 5.65603C4.97492 4.3001 5.65991 3.18345 6.71153 2.30608C7.76315 1.42871 8.96913 1 10.3295 1C11.6609 1 12.8379 1.42871 13.8799 2.27617C14.9219 3.12363 15.5972 4.22034 15.9059 5.55633H16.2147C17.0733 5.55633 17.8741 5.77567 18.6073 6.20439C19.3406 6.6331 19.9291 7.23131 20.3536 7.97906C20.7781 8.72682 21 9.55434 21 10.4417C21 11.319 20.7974 12.1266 20.3922 12.8744C19.987 13.6221 19.4274 14.2203 18.7231 14.669C18.0188 15.1176 17.247 15.3569 16.4076 15.3769C16.2822 15.3769 16.2147 15.317 16.2147 15.2074V13.8814C16.2147 13.7617 16.2822 13.7019 16.4076 13.7019C17.2277 13.662 17.932 13.323 18.5109 12.6849C19.0897 12.0469 19.3792 11.2991 19.3792 10.4317C19.3792 9.56431 19.0608 8.81655 18.4337 8.17846C17.8066 7.54038 17.0637 7.22134 16.205 7.22134H14.6517C14.5359 7.22134 14.4781 7.16152 14.4781 7.05184L14.4009 6.47358C14.2947 5.39681 13.8413 4.48953 13.0598 3.77169C12.2687 3.04387 11.3618 2.68495 10.3102 2.68495C9.25856 2.68495 8.33237 3.04387 7.56054 3.77169C6.77906 4.4995 6.34491 5.39681 6.24843 6.47358L6.1809 7.00199C6.1809 7.12164 6.11336 7.19143 5.98794 7.19143L5.4766 7.22134C4.67583 7.32104 4.00048 7.67996 3.45055 8.28814C2.90063 8.89631 2.63049 9.61416 2.63049 10.4417C2.63049 11.3091 2.91992 12.0568 3.49879 12.6949C4.07767 13.333 4.78196 13.672 5.60203 13.7119C5.70815 13.7119 5.76604 13.7717 5.76604 13.8913V15.2173C5.76604 15.327 5.70815 15.3868 5.60203 15.3868C4.30921 15.327 3.21901 14.8185 2.32176 13.8614C1.42451 12.9043 1 11.7677 1 10.4417Z" fill="black"/>
<path fill-rule="evenodd" clip-rule="evenodd" d="M13.5 16.817C14.6046 16.817 15.5 15.9216 15.5 14.817C15.5 14.0807 14.8333 12.8813 13.5 11.219C12.1667 12.8813 11.5 14.0807 11.5 14.817C11.5 15.9216 12.3954 16.817 13.5 16.817Z" fill="black"/>
<path fill-rule="evenodd" clip-rule="evenodd" d="M8.5 15.5351C9.60457 15.5351 10.5 14.6396 10.5 13.5351C10.5 12.7987 9.83333 11.5993 8.5 9.93699C7.16667 11.5993 6.5 12.7987 6.5 13.5351C6.5 14.6396 7.39543 15.5351 8.5 15.5351Z" fill="black"/>
<path fill-rule="evenodd" clip-rule="evenodd" d="M10.6914 20.5744C11.796 20.5744 12.6914 19.6789 12.6914 18.5744C12.6914 17.838 12.0247 16.6386 10.6914 14.9763C9.35807 16.6386 8.69141 17.838 8.69141 18.5744C8.69141 19.6789 9.58684 20.5744 10.6914 20.5744Z" fill="black"/>
</svg>
