<svg width="22" height="22" viewBox="0 0 22 22" fill="none" xmlns="http://www.w3.org/2000/svg">
<path d="M1 10.4417C1 9.29511 1.34732 8.27817 2.04197 7.38086C2.73661 6.48355 3.61457 5.91525 4.67583 5.65603C4.97492 4.3001 5.65991 3.18345 6.71153 2.30608C7.76315 1.42871 8.96913 1 10.3295 1C11.6609 1 12.8379 1.42871 13.8799 2.27617C14.9219 3.12363 15.5972 4.22034 15.9059 5.55633H16.2147C17.0733 5.55633 17.8741 5.77567 18.6073 6.20439C19.3406 6.6331 19.9291 7.23131 20.3536 7.97906C20.7781 8.72682 21 9.55434 21 10.4417C21 11.319 20.7974 12.1266 20.3922 12.8744C19.987 13.6221 19.4274 14.2203 18.7231 14.669C18.0188 15.1176 17.247 15.3569 16.4076 15.3769C16.2822 15.3769 16.2147 15.317 16.2147 15.2074V13.8814C16.2147 13.7617 16.2822 13.7019 16.4076 13.7019C17.2277 13.662 17.932 13.323 18.5109 12.6849C19.0897 12.0469 19.3792 11.2991 19.3792 10.4317C19.3792 9.56431 19.0608 8.81655 18.4337 8.17846C17.8066 7.54038 17.0637 7.22134 16.205 7.22134H14.6517C14.5359 7.22134 14.4781 7.16152 14.4781 7.05184L14.4009 6.47358C14.2947 5.39681 13.8413 4.48953 13.0598 3.77169C12.2687 3.04387 11.3618 2.68495 10.3102 2.68495C9.25856 2.68495 8.33237 3.04387 7.56054 3.77169C6.77906 4.4995 6.34491 5.39681 6.24843 6.47358L6.1809 7.00199C6.1809 7.12164 6.11336 7.19143 5.98794 7.19143L5.4766 7.22134C4.67583 7.32104 4.00048 7.67996 3.45055 8.28814C2.90063 8.89631 2.63049 9.61416 2.63049 10.4417C2.63049 11.3091 2.91992 12.0568 3.49879 12.6949C4.07767 13.333 4.78196 13.672 5.60203 13.7119C5.70815 13.7119 5.76604 13.7717 5.76604 13.8913V15.2173C5.76604 15.327 5.70815 15.3868 5.60203 15.3868C4.30921 15.327 3.21901 14.8185 2.32176 13.8614C1.42451 12.9043 1 11.7677 1 10.4417ZM6.1616 17.1117C6.1616 17.0718 6.17125 17.002 6.20019 16.9123L7.77279 11.1595C7.83068 10.9701 7.93681 10.8205 8.08152 10.7208C8.22624 10.6211 8.38061 10.5713 8.52532 10.5713C8.59286 10.5713 8.67004 10.5813 8.75687 10.6012C8.98842 10.6411 9.16208 10.7707 9.27786 10.9701C9.39363 11.1695 9.42258 11.3888 9.35504 11.6381L7.78244 17.3509C7.66667 17.7797 7.39653 17.989 6.99132 17.989C6.95273 17.989 6.92378 17.9791 6.88519 17.9691C6.8273 17.9492 6.79836 17.9392 6.78871 17.9392C6.57646 17.8794 6.42209 17.7697 6.31597 17.6102C6.20984 17.4407 6.1616 17.2812 6.1616 17.1117ZM8.68934 19.9133L11.0434 11.1695C11.082 10.9801 11.1785 10.8305 11.3329 10.7308C11.4872 10.6311 11.6416 10.5813 11.8056 10.5813C11.8924 10.5813 11.9793 10.5912 12.0661 10.6112C12.2783 10.671 12.4327 10.8006 12.5388 11C12.645 11.1994 12.6643 11.4088 12.6064 11.6381L10.2619 20.3918C10.2233 20.5613 10.1365 20.7009 9.98215 20.8205C9.82778 20.9402 9.67342 21 9.49011 21C9.40328 21 9.31645 20.9801 9.24891 20.9501C9.05596 20.9003 8.89194 20.7707 8.74723 20.5613C8.6411 20.3819 8.6218 20.1725 8.68934 19.9133ZM12.6739 17.1316C12.6739 17.0917 12.6836 17.0219 12.7125 16.9023L14.2851 11.1496C14.343 10.9601 14.4395 10.8106 14.5745 10.7109C14.7192 10.6112 14.864 10.5613 15.0183 10.5613C15.0955 10.5613 15.1823 10.5713 15.2692 10.5912C15.4718 10.651 15.6165 10.7507 15.713 10.9003C15.8095 11.0499 15.8577 11.2094 15.8577 11.3689C15.8577 11.3988 15.848 11.4487 15.8384 11.5085C15.8288 11.5683 15.8191 11.6082 15.8191 11.6281L14.2465 17.341C14.2079 17.5304 14.1211 17.6899 13.9764 17.7996C13.8316 17.9093 13.6676 17.9691 13.4843 17.9691L13.2528 17.9192C13.0598 17.8594 12.9151 17.7597 12.809 17.6002C12.7221 17.4506 12.6739 17.2911 12.6739 17.1316Z" fill="black"/>
</svg>
