<svg width="22" height="22" viewBox="0 0 22 22" fill="none" xmlns="http://www.w3.org/2000/svg">
<path d="M1 10.2472C1 9.12045 1.34582 8.11996 2.03746 7.24575C2.72911 6.37154 3.61287 5.79845 4.66955 5.55561C4.96734 4.22487 5.63977 3.13696 6.68684 2.28218C7.73391 1.42739 8.94428 1 10.3084 1C11.0865 1 11.7973 1.12627 12.4217 1.38854C12.4217 1.39825 12.4217 1.39825 12.4313 1.40797C13.2382 1.7188 13.9491 2.22389 14.5543 2.91355H14.5831C15.2363 3.62263 15.6686 4.4677 15.8991 5.45848H16.1969C17.2344 5.45848 18.1374 5.74017 18.9155 6.29383V6.28412C19.4246 6.6338 19.8569 7.06119 20.2027 7.57601C20.5485 8.09082 20.7791 8.6542 20.9039 9.26615C20.9424 9.47013 20.9616 9.63526 20.9808 9.77125V9.82953C20.9808 9.83924 20.9808 9.88781 20.9904 9.99466C21 10.1015 21 10.1792 21 10.2278V10.2569C21 11.1117 20.7983 11.9082 20.3852 12.6367C19.9817 13.3652 19.4246 13.9577 18.7137 14.3949C18.0125 14.832 17.2344 15.0651 16.389 15.0942C16.2642 15.0942 16.1969 15.0359 16.1969 14.9291V13.6275C16.1969 13.5012 16.2642 13.4429 16.389 13.4429C17.2152 13.4041 17.9068 13.0738 18.4832 12.4522C19.0596 11.8305 19.3477 11.102 19.3477 10.2569C19.3477 9.39242 19.0403 8.6542 18.4159 8.03254C17.8012 7.41088 17.0615 7.10005 16.1969 7.10005H14.6503C14.5351 7.10005 14.4774 7.04177 14.4774 6.93492L14.4006 6.36183C14.3045 5.39048 13.9011 4.55512 13.1806 3.84604C13.171 3.83633 13.171 3.82661 13.1614 3.8169C13.1518 3.80719 13.1422 3.79747 13.1422 3.78776C13.1326 3.77805 13.123 3.76833 13.1037 3.76833C13.1037 3.74891 13.0941 3.73919 13.0845 3.73919C12.3833 3.09811 11.5668 2.72899 10.6254 2.65129C10.5581 2.64157 10.4524 2.64157 10.2988 2.64157C9.24208 2.64157 8.32949 3.00097 7.55139 3.71005C6.77329 4.41914 6.33141 5.30306 6.23535 6.35211L6.1585 6.92521C6.12968 7.01263 6.05283 7.06119 5.94717 7.06119L5.47646 7.09034C4.66955 7.18747 3.98751 7.53715 3.44957 8.12968C2.91162 8.7222 2.64265 9.43128 2.64265 10.2472V10.2861H2.67147C2.68108 10.7523 2.77714 11.1894 2.95965 11.5974C3.15178 12.0151 3.40154 12.3647 3.72815 12.6561C3.92987 12.831 4.16042 12.9864 4.439 13.1224V13.1321C4.82325 13.3167 5.20749 13.4235 5.60134 13.4429C5.70701 13.4429 5.76465 13.5012 5.76465 13.6178V14.9194C5.76465 15.0262 5.70701 15.0845 5.60134 15.0845C5.10183 15.0554 4.63112 14.9582 4.17963 14.7931V14.8028C3.38232 14.5211 2.70029 14.0549 2.15274 13.4138C1.60519 12.7727 1.24015 12.0151 1.08646 11.17V11.1408C1.07685 11.1311 1.07685 11.1214 1.07685 11.102C1.01921 10.8494 1 10.558 1 10.2472ZM6.28338 17.2118C6.28338 17.1826 6.29299 17.1438 6.30259 17.0855C6.3122 17.0369 6.32181 16.9981 6.32181 16.9689L6.40826 16.3958C6.4755 16.1627 6.60038 15.9976 6.80211 15.881C7.00384 15.7644 7.21518 15.745 7.45533 15.8033C7.67627 15.8713 7.82997 16.0073 7.94524 16.2016C8.05091 16.4055 8.07013 16.6095 8.01249 16.8135L7.878 17.3963C7.78194 17.8237 7.54179 18.0374 7.14793 18.0374C7.11912 18.0374 7.07109 18.0277 7.01345 18.018C6.95581 18.0083 6.91739 17.9985 6.87896 17.9985C6.67723 17.9403 6.53314 17.8334 6.43708 17.678C6.33141 17.5323 6.28338 17.3769 6.28338 17.2118ZM6.99424 14.356C6.99424 14.1229 7.07109 13.9383 7.21518 13.7829C7.35927 13.6275 7.55139 13.5595 7.78194 13.5595C8.01249 13.5595 8.195 13.6372 8.3487 13.7829C8.5024 13.9286 8.56964 14.1229 8.56964 14.356C8.56964 14.5794 8.4928 14.764 8.3487 14.9194C8.20461 15.0748 8.01249 15.1428 7.78194 15.1428C7.561 15.1428 7.37848 15.0651 7.23439 14.9097C7.08069 14.7542 6.99424 14.5697 6.99424 14.356ZM8.56964 20.1744C8.56964 20.1355 8.57925 20.0675 8.60807 19.9509L8.73295 19.3779C8.80019 19.1544 8.93468 18.9893 9.1268 18.8825C9.32853 18.7659 9.53026 18.7465 9.73199 18.8145C9.95293 18.8533 10.1258 18.9796 10.2411 19.1739C10.3564 19.3681 10.3852 19.5915 10.318 19.8344L10.1931 20.4075C10.097 20.8057 9.83766 21 9.42459 21C9.35735 21 9.27089 20.9903 9.19404 20.9709C8.98271 20.9126 8.82901 20.8057 8.72334 20.6503C8.62728 20.4949 8.56964 20.3395 8.56964 20.1744ZM9.32853 17.3477C9.32853 17.1243 9.40538 16.9301 9.54947 16.7844C9.70317 16.6289 9.88569 16.561 10.1162 16.561C10.3468 16.561 10.5293 16.6387 10.683 16.7844C10.8367 16.9398 10.9039 17.1243 10.9039 17.3477C10.9039 17.5809 10.8271 17.7654 10.683 17.9208C10.5293 18.0763 10.3468 18.1442 10.1162 18.1442C9.89529 18.1442 9.71278 18.0665 9.55908 17.9111C9.40538 17.7557 9.32853 17.5712 9.32853 17.3477ZM9.92411 15.1428C9.92411 15.0457 9.93372 14.9582 9.95293 14.8805L10.1739 14.0063C10.2411 13.7829 10.3756 13.6081 10.5677 13.4915C10.7695 13.3749 10.9712 13.3458 11.1825 13.4138C11.4131 13.4818 11.5764 13.6081 11.6916 13.8023C11.8069 13.9966 11.8261 14.2006 11.7589 14.4143L11.5091 15.2885C11.4323 15.5605 11.2978 15.7353 11.1153 15.8324C10.9328 15.9296 10.7214 15.949 10.5005 15.8907C10.3084 15.8519 10.1643 15.7547 10.0682 15.5993C9.95293 15.4439 9.91451 15.2885 9.92411 15.1428ZM12.5754 17.2215C12.5754 17.1923 12.5754 17.1438 12.585 17.0952C12.5946 17.0466 12.5946 17.0078 12.5946 16.9883L12.6811 16.4152C12.7483 16.1821 12.8732 16.017 13.0749 15.9004C13.2767 15.7839 13.488 15.7644 13.7281 15.8227C13.9491 15.8907 14.1124 16.0267 14.2181 16.221C14.3333 16.425 14.3525 16.6289 14.2853 16.8329L14.1508 17.4157C14.0548 17.8431 13.8146 18.0568 13.4207 18.0568C13.3919 18.0568 13.3439 18.0471 13.2863 18.0374C13.2286 18.0277 13.1806 18.018 13.1518 18.018C12.9597 17.9597 12.8156 17.8528 12.7195 17.6974C12.633 17.542 12.5754 17.3866 12.5754 17.2215ZM13.2863 14.3657C13.2863 14.1326 13.3631 13.948 13.5072 13.7926C13.6609 13.6372 13.8434 13.5692 14.074 13.5692C14.3045 13.5692 14.487 13.6469 14.6407 13.7926C14.7944 13.948 14.8617 14.1326 14.8617 14.3657C14.8617 14.5891 14.7848 14.7834 14.6407 14.9291C14.4966 15.0748 14.3141 15.1525 14.0836 15.1525C13.853 15.1525 13.6705 15.0748 13.5264 14.9194C13.3727 14.7737 13.2863 14.5891 13.2863 14.3657Z" fill="black"/>
</svg>
