<svg width="24" height="24" viewBox="0 0 24 24" fill="none" xmlns="http://www.w3.org/2000/svg">
<path d="M12.4059 17.5708C9.35717 17.5708 6.87695 15.0906 6.87695 12.0419C6.87695 8.99317 9.35717 6.51343 12.4059 6.51343C15.4546 6.51343 17.9348 8.99364 17.9348 12.0419C17.9348 15.0906 15.4546 17.5708 12.4059 17.5708ZM12.4059 7.61893C9.9671 7.61893 7.98293 9.6031 7.98293 12.0419C7.98293 14.4812 9.9671 16.4649 12.4059 16.4649C14.8447 16.4649 16.8289 14.4812 16.8289 12.0419C16.8289 9.60357 14.8447 7.61893 12.4059 7.61893Z" fill="black" stroke="black"/>
<path d="M12.4055 4.40971C12.1001 4.40971 11.8525 4.16169 11.8525 3.85672V1.55252C11.8525 1.24708 12.1001 1 12.4055 1C12.7105 1 12.9585 1.24708 12.9585 1.55252V3.85672C12.9585 4.16169 12.7105 4.40971 12.4055 4.40971Z" fill="black" stroke="black"/>
<path d="M17.9081 7.21994C17.7664 7.21994 17.6252 7.16581 17.517 7.05804C17.301 6.84249 17.301 6.49235 17.517 6.27633L19.4979 4.29545C19.7139 4.0799 20.0636 4.0799 20.2796 4.29545C20.4956 4.51147 20.4956 4.86162 20.2796 5.07717L18.2987 7.05804C18.1909 7.16581 18.0497 7.21994 17.9081 7.21994Z" fill="black" stroke="black"/>
<path d="M6.02189 7.21994C5.88023 7.21994 5.73857 7.16581 5.6308 7.05804L3.64945 5.07717C3.43391 4.86162 3.43391 4.51147 3.64945 4.29545C3.86547 4.0799 4.21562 4.0799 4.43117 4.29545L6.41251 6.27633C6.62806 6.49235 6.62806 6.84296 6.41251 7.05804C6.30474 7.16581 6.16308 7.21994 6.02189 7.21994Z" fill="black" stroke="black"/>
<path d="M11.9651 23C11.6597 23 11.4121 22.7525 11.4121 22.447V20.1428C11.4121 19.8374 11.6597 19.5898 11.9651 19.5898C12.2701 19.5898 12.5176 19.8374 12.5176 20.1428V22.447C12.5176 22.7525 12.2701 23 11.9651 23Z" fill="black" stroke="black"/>
<path d="M4.48135 19.8665C4.34016 19.8665 4.1985 19.8124 4.09072 19.7046C3.87471 19.4891 3.87471 19.1385 4.09072 18.9224L6.0716 16.9416C6.28762 16.7255 6.6373 16.7255 6.85331 16.9416C7.06933 17.1571 7.06933 17.5073 6.85331 17.7233L4.87244 19.7046C4.76466 19.8124 4.623 19.8665 4.48135 19.8665Z" fill="black" stroke="black"/>
<path d="M20.3299 19.8665C20.1887 19.8665 20.047 19.8124 19.9388 19.7046L17.9579 17.7233C17.7419 17.5073 17.7419 17.1576 17.9579 16.9416C18.1739 16.7255 18.5236 16.7255 18.7396 16.9416L20.7205 18.9224C20.9365 19.1385 20.9365 19.4881 20.7205 19.7046C20.6127 19.8124 20.4715 19.8665 20.3299 19.8665Z" fill="black" stroke="black"/>
<path d="M4.04073 12.595H1.55299C1.24755 12.595 1 12.3474 1 12.042C1 11.737 1.24755 11.489 1.55299 11.489H4.04073C4.34617 11.489 4.59372 11.7366 4.59372 12.042C4.59325 12.3474 4.34617 12.595 4.04073 12.595Z" fill="black" stroke="black"/>
<path d="M22.8379 12.595H19.8889C19.5835 12.595 19.3359 12.3474 19.3359 12.042C19.3359 11.737 19.5835 11.489 19.8889 11.489H22.8379C23.1429 11.489 23.3909 11.7366 23.3909 12.042C23.3909 12.3474 23.1429 12.595 22.8379 12.595Z" fill="black" stroke="black"/>
</svg>
