<svg width="22" height="23" viewBox="0 0 22 23" fill="none" xmlns="http://www.w3.org/2000/svg">
<path d="M1 11.51C1 10.35 1.338 9.33 2.02366 8.43C2.70932 7.53 3.58812 6.95 4.66972 6.67C4.9691 5.31 5.6451 4.19 6.69773 3.31C7.75036 2.43 8.95751 2 10.3192 2C11.6519 2 12.83 2.43 13.873 3.28C14.916 4.13 15.592 5.23 15.901 6.57H16.21C17.0695 6.57 17.8711 6.79 18.605 7.23C19.339 7.67 19.9281 8.27 20.353 9.03C20.7779 9.79 21 10.62 21 11.51C21 12.83 20.5558 13.98 19.6577 14.93C18.7692 15.89 17.6779 16.39 16.3935 16.43C16.268 16.43 16.2004 16.37 16.2004 16.26V14.93C16.2004 14.81 16.268 14.75 16.3935 14.75C17.2144 14.71 17.9194 14.37 18.4988 13.73C19.0782 13.09 19.3679 12.35 19.3679 11.5C19.3679 10.61 19.0589 9.85 18.4312 9.2C17.8035 8.55 17.0599 8.23 16.1907 8.23H14.6359C14.52 8.23 14.4621 8.17 14.4621 8.06L14.3848 7.48C14.2786 6.4 13.8247 5.49 13.0425 4.76C12.2506 4.03 11.3428 3.66 10.2902 3.66C9.22791 3.66 8.31048 4.03 7.52825 4.77C6.74602 5.51 6.30179 6.42 6.20521 7.52L6.14727 8.02C6.14727 8.14 6.07967 8.21 5.95413 8.21L5.4423 8.28C4.64075 8.35 3.96475 8.69 3.41429 9.32C2.86383 9.95 2.59343 10.67 2.59343 11.51C2.59343 12.36 2.88315 13.1 3.46258 13.74C4.04201 14.38 4.74698 14.71 5.56784 14.76C5.67407 14.76 5.73201 14.82 5.73201 14.94V16.27C5.73201 16.38 5.67407 16.44 5.56784 16.44C4.27378 16.4 3.18252 15.9 2.2844 14.94C1.44423 13.98 1 12.83 1 11.51Z" fill="black"/>
<path d="M10.7835 13.6284C10.8386 13.5982 10.8788 13.5486 10.8952 13.4905C10.9116 13.4323 10.903 13.3703 10.8712 13.3182L10.5109 12.7273C10.479 12.6752 10.4266 12.6372 10.3651 12.6216C10.3037 12.6061 10.2382 12.6142 10.1831 12.6443L9.21156 13.175C9.09747 13.2375 9.0038 13.1864 9.0038 13.0614V12C9.0038 11.9397 8.97849 11.8819 8.93345 11.8393C8.88841 11.7967 8.82732 11.7727 8.76362 11.7727H8.04307C7.97937 11.7727 7.91828 11.7967 7.87324 11.8393C7.82819 11.8819 7.80289 11.9397 7.80289 12V13.0614C7.80289 13.1864 7.70922 13.2375 7.59513 13.175L6.6236 12.6443C6.56848 12.6142 6.50301 12.6061 6.44154 12.6216C6.38007 12.6372 6.32764 12.6752 6.29575 12.7273L5.93548 13.3182C5.90369 13.3703 5.89506 13.4323 5.9115 13.4905C5.92793 13.5486 5.96809 13.5982 6.02314 13.6284L6.99468 14.1591C7.01955 14.1674 7.04109 14.1827 7.05633 14.2031C7.07157 14.2235 7.07976 14.2478 7.07976 14.2727C7.07976 14.2977 7.07157 14.322 7.05633 14.3424C7.04109 14.3627 7.01955 14.3781 6.99468 14.3864L6.02314 14.917C5.96809 14.9472 5.92793 14.9968 5.9115 15.055C5.89506 15.1132 5.90369 15.1751 5.93548 15.2273L6.29575 15.8182C6.32764 15.8703 6.38007 15.9083 6.44154 15.9238C6.50301 15.9394 6.56848 15.9312 6.6236 15.9011L7.59513 15.3705C7.70922 15.308 7.80289 15.3591 7.80289 15.4841V16.5455C7.80289 16.6057 7.82819 16.6635 7.87324 16.7062C7.91828 16.7488 7.97937 16.7727 8.04307 16.7727H8.76362C8.82732 16.7727 8.88841 16.7488 8.93345 16.7062C8.97849 16.6635 9.0038 16.6057 9.0038 16.5455V15.4841C9.0038 15.3591 9.09747 15.308 9.21156 15.3705L10.1831 15.9011C10.2382 15.9312 10.3037 15.9394 10.3651 15.9238C10.4266 15.9083 10.479 15.8703 10.5109 15.8182L10.8712 15.2273C10.903 15.1751 10.9116 15.1132 10.8952 15.055C10.8788 14.9968 10.8386 14.9472 10.7835 14.917L9.81201 14.3864C9.78714 14.3781 9.7656 14.3627 9.75036 14.3424C9.73512 14.322 9.72693 14.2977 9.72693 14.2727C9.72693 14.2478 9.73512 14.2235 9.75036 14.2031C9.7656 14.1827 9.78714 14.1674 9.81201 14.1591L10.7835 13.6284Z" fill="black"/>
<path d="M15.8117 15.8517C15.8613 15.8133 15.8932 15.758 15.9004 15.698C15.9075 15.6379 15.8893 15.5781 15.8497 15.5316L15.4014 15.0043C15.3617 14.9579 15.304 14.9285 15.2409 14.9228C15.1777 14.9171 15.1143 14.9354 15.0646 14.9737L14.1881 15.6499C14.0852 15.7295 13.9847 15.6937 13.9651 15.5702L13.799 14.5219C13.7896 14.4624 13.7555 14.4092 13.7044 14.3742C13.6532 14.3392 13.5891 14.3251 13.5262 14.335L12.8145 14.4478C12.7516 14.4578 12.695 14.491 12.6572 14.5401C12.6194 14.5893 12.6035 14.6504 12.6129 14.7099L12.779 15.7582C12.7986 15.8816 12.7141 15.9468 12.5916 15.9029L11.549 15.5308C11.4898 15.5098 11.4239 15.5119 11.3656 15.5369C11.3073 15.5619 11.2615 15.6076 11.2382 15.6641L10.9748 16.3041C10.9516 16.3606 10.9528 16.4231 10.9781 16.478C11.0034 16.5329 11.0509 16.5756 11.11 16.5968L12.1526 16.9689C12.1784 16.9731 12.2021 16.985 12.2204 17.0027C12.2386 17.0204 12.2505 17.0431 12.2544 17.0678C12.2583 17.0924 12.254 17.1177 12.2422 17.1402C12.2303 17.1627 12.2114 17.1813 12.1882 17.1933L11.3117 17.8695C11.262 17.908 11.2301 17.9633 11.223 18.0233C11.2159 18.0833 11.2341 18.1431 11.2736 18.1897L11.722 18.7169C11.7616 18.7634 11.8193 18.7927 11.8825 18.7984C11.9456 18.8042 12.009 18.7859 12.0588 18.7475L12.9353 18.0713C13.0381 17.9917 13.1387 18.0276 13.1582 18.151L13.3244 19.1993C13.3338 19.2588 13.3678 19.312 13.419 19.347C13.4702 19.3821 13.5342 19.3962 13.5972 19.3862L14.3088 19.2734C14.3717 19.2634 14.4283 19.2302 14.4661 19.1811C14.504 19.1319 14.5199 19.0709 14.5105 19.0113L14.3443 17.9631C14.3248 17.8396 14.4093 17.7744 14.5317 17.8183L15.5744 18.1904C15.6335 18.2115 15.6995 18.2093 15.7577 18.1843C15.816 18.1593 15.8619 18.1136 15.8852 18.0571L16.1485 17.4171C16.1718 17.3606 16.1706 17.2981 16.1453 17.2432C16.1199 17.1883 16.0725 17.1456 16.0134 17.1244L14.9708 16.7524C14.9449 16.7481 14.9212 16.7363 14.903 16.7185C14.8848 16.7008 14.8729 16.6781 14.869 16.6534C14.8651 16.6288 14.8693 16.6035 14.8812 16.581C14.8931 16.5585 14.9119 16.54 14.9352 16.5279L15.8117 15.8517Z" fill="black"/>
<path d="M10.8095 17.9592C10.8479 17.9096 10.8649 17.8481 10.8568 17.7882C10.8486 17.7283 10.816 17.6749 10.766 17.6398L10.1998 17.2418C10.1498 17.2068 10.0866 17.1929 10.024 17.2031C9.96143 17.2134 9.90465 17.247 9.86613 17.2966L9.18718 18.171C9.10753 18.2738 9.00123 18.2643 8.95134 18.1497L8.52767 17.1766C8.50361 17.1213 8.45733 17.0784 8.39902 17.0573C8.34071 17.0362 8.27514 17.0387 8.21673 17.0641L7.55608 17.3517C7.49768 17.3771 7.45122 17.4235 7.42694 17.4805C7.40265 17.5376 7.40253 17.6007 7.42659 17.656L7.85025 18.6291C7.90015 18.7437 7.83468 18.828 7.70512 18.8162L6.60251 18.7175C6.53997 18.7119 6.47668 18.7305 6.42653 18.7693C6.37638 18.8081 6.34347 18.8639 6.33503 18.9244L6.24058 19.61C6.23225 19.6705 6.24907 19.7307 6.28736 19.7775C6.32564 19.8243 6.38227 19.8537 6.44479 19.8594L7.5474 19.9582C7.57351 19.9559 7.5994 19.9613 7.6215 19.9739C7.64359 19.9865 7.66081 20.0056 7.67077 20.0284C7.68072 20.0513 7.68293 20.0769 7.67708 20.1016C7.67124 20.1264 7.65762 20.1491 7.63812 20.1666L6.95918 21.041C6.92074 21.0906 6.90373 21.1521 6.91188 21.212C6.92003 21.2719 6.95267 21.3253 7.00263 21.3604L7.56883 21.7584C7.61887 21.7934 7.68211 21.8073 7.74467 21.797C7.80724 21.7868 7.86402 21.7531 7.90254 21.7036L8.58149 20.8292C8.66114 20.7263 8.76744 20.7358 8.81733 20.8504L9.241 21.8236C9.26506 21.8788 9.31134 21.9217 9.36965 21.9428C9.42796 21.9639 9.49353 21.9615 9.55194 21.9361L10.2126 21.6485C10.271 21.623 10.3174 21.5767 10.3417 21.5196C10.366 21.4626 10.3661 21.3995 10.3421 21.3442L9.91842 20.3711C9.86852 20.2565 9.93399 20.1722 10.0635 20.184L11.1662 20.2827C11.2287 20.2883 11.292 20.2696 11.3421 20.2308C11.3923 20.1921 11.4252 20.1363 11.4336 20.0758L11.5281 19.3902C11.5364 19.3297 11.5196 19.2694 11.4813 19.2227C11.443 19.1759 11.3864 19.1464 11.3239 19.1407L10.2213 19.042C10.1952 19.0443 10.1693 19.0388 10.1472 19.0262C10.1251 19.0137 10.1079 18.9946 10.0979 18.9717C10.0879 18.9489 10.0857 18.9233 10.0916 18.8986C10.0974 18.8738 10.111 18.8511 10.1305 18.8336L10.8095 17.9592Z" fill="black"/>
</svg>
