<svg width="22" height="22" viewBox="0 0 22 22" fill="none" xmlns="http://www.w3.org/2000/svg">
<path d="M1 10.51C1 9.35 1.338 8.33 2.02366 7.43C2.70932 6.53 3.58812 5.95 4.66972 5.67C4.9691 4.31 5.6451 3.19 6.69773 2.31C7.75036 1.43 8.95751 1 10.3192 1C11.6519 1 12.83 1.43 13.873 2.28C14.916 3.13 15.592 4.23 15.901 5.57H16.21C17.0695 5.57 17.8711 5.79 18.605 6.23C19.339 6.67 19.9281 7.27 20.353 8.03C20.7779 8.79 21 9.62 21 10.51C21 11.83 20.5558 12.98 19.6577 13.93C18.7692 14.89 17.6779 15.39 16.3935 15.43C16.268 15.43 16.2004 15.37 16.2004 15.26V13.93C16.2004 13.81 16.268 13.75 16.3935 13.75C17.2144 13.71 17.9194 13.37 18.4988 12.73C19.0782 12.09 19.3679 11.35 19.3679 10.5C19.3679 9.61 19.0589 8.85 18.4312 8.2C17.8035 7.55 17.0599 7.23 16.1907 7.23H14.6359C14.52 7.23 14.4621 7.17 14.4621 7.06L14.3848 6.48C14.2786 5.4 13.8247 4.49 13.0425 3.76C12.2506 3.03 11.3428 2.66 10.2902 2.66C9.22791 2.66 8.31048 3.03 7.52825 3.77C6.74602 4.51 6.30179 5.42 6.20521 6.52L6.14727 7.02C6.14727 7.14 6.07967 7.21 5.95413 7.21L5.4423 7.28C4.64075 7.35 3.96475 7.69 3.41429 8.32C2.86383 8.95 2.59343 9.67 2.59343 10.51C2.59343 11.36 2.88315 12.1 3.46258 12.74C4.04201 13.38 4.74698 13.71 5.56784 13.76C5.67407 13.76 5.73201 13.82 5.73201 13.94V15.27C5.73201 15.38 5.67407 15.44 5.56784 15.44C4.27378 15.4 3.18252 14.9 2.2844 13.94C1.44423 12.98 1 11.83 1 10.51ZM7.14196 14.58C7.14196 14.36 7.21922 14.16 7.37373 14C7.52825 13.84 7.71173 13.76 7.94351 13.76C8.16562 13.76 8.35876 13.84 8.51328 14C8.66779 14.16 8.74505 14.36 8.74505 14.58C8.74505 14.82 8.66779 15.02 8.51328 15.18C8.35876 15.35 8.17528 15.43 7.94351 15.43C7.72139 15.43 7.52825 15.35 7.37373 15.18C7.21922 15.02 7.14196 14.82 7.14196 14.58ZM7.14196 18.21C7.14196 17.97 7.21922 17.77 7.37373 17.61C7.52825 17.46 7.71173 17.38 7.93385 17.38C8.15596 17.38 8.34911 17.46 8.50362 17.61C8.65814 17.77 8.73539 17.96 8.73539 18.2C8.73539 18.44 8.65814 18.63 8.50362 18.79C8.34911 18.95 8.16562 19.02 7.93385 19.02C7.71173 19.02 7.51859 18.94 7.36407 18.79C7.21922 18.64 7.14196 18.44 7.14196 18.21ZM10.2226 16.51C10.2226 16.28 10.2999 16.07 10.464 15.89C10.6185 15.73 10.802 15.65 11.0145 15.65C11.2366 15.65 11.4297 15.74 11.5939 15.91C11.7581 16.08 11.845 16.28 11.845 16.51C11.845 16.74 11.7677 16.94 11.6036 17.11C11.4394 17.28 11.2463 17.36 11.0145 17.36C10.7924 17.36 10.6089 17.28 10.4544 17.11C10.2999 16.94 10.2226 16.74 10.2226 16.51ZM10.2226 12.89C10.2226 12.66 10.2999 12.46 10.464 12.29C10.6379 12.13 10.8213 12.05 11.0145 12.05C11.2463 12.05 11.4394 12.13 11.6036 12.3C11.7677 12.47 11.845 12.66 11.845 12.9C11.845 13.13 11.7677 13.33 11.6036 13.49C11.4394 13.65 11.2463 13.73 11.0145 13.73C10.7924 13.73 10.6089 13.65 10.4544 13.49C10.2999 13.32 10.2226 13.12 10.2226 12.89ZM10.2226 20.17C10.2226 19.94 10.2999 19.74 10.464 19.56C10.6185 19.4 10.802 19.32 11.0145 19.32C11.2463 19.32 11.4394 19.4 11.6036 19.57C11.7677 19.74 11.845 19.94 11.845 20.17C11.845 20.4 11.7677 20.6 11.6036 20.76C11.4394 20.92 11.2463 21 11.0145 21C10.7924 21 10.6089 20.92 10.4544 20.76C10.2999 20.59 10.2226 20.4 10.2226 20.17ZM13.3322 14.58C13.3322 14.36 13.4095 14.17 13.5736 14C13.7378 13.83 13.931 13.75 14.1531 13.75C14.3752 13.75 14.5683 13.83 14.7228 13.99C14.8774 14.15 14.9546 14.35 14.9546 14.57C14.9546 14.81 14.8774 15.01 14.7228 15.17C14.5683 15.34 14.3848 15.42 14.1531 15.42C13.9213 15.42 13.7282 15.34 13.5736 15.17C13.4191 15.01 13.3322 14.81 13.3322 14.58ZM13.3322 18.21C13.3322 17.99 13.4095 17.79 13.5736 17.61C13.7282 17.46 13.9213 17.38 14.1531 17.38C14.3848 17.38 14.5683 17.46 14.7228 17.61C14.8774 17.76 14.945 17.96 14.945 18.2C14.945 18.44 14.8677 18.63 14.7228 18.79C14.5683 18.95 14.3848 19.02 14.1531 19.02C13.9213 19.02 13.7282 18.94 13.5736 18.78C13.4191 18.63 13.3322 18.44 13.3322 18.21Z" fill="black"/>
</svg>
