<svg width="72" height="71" viewBox="0 0 72 71" fill="none" xmlns="http://www.w3.org/2000/svg">
<path d="M36.2908 52.733C26.5903 52.733 18.6987 44.8414 18.6987 35.1409C18.6987 25.4404 26.5903 17.5503 36.2908 17.5503C45.9913 17.5503 53.8829 25.4419 53.8829 35.1409C53.8829 44.8414 45.9913 52.733 36.2908 52.733ZM36.2908 21.0678C28.531 21.0678 22.2178 27.3811 22.2178 35.1409C22.2178 42.9022 28.531 49.214 36.2908 49.214C44.0506 49.214 50.3639 42.9022 50.3639 35.1409C50.3639 27.3826 44.0506 21.0678 36.2908 21.0678Z" fill="black"/>
<path d="M36.2908 10.8566C35.3189 10.8566 34.5312 10.0675 34.5312 9.09713V1.76558C34.5312 0.793735 35.3189 0.00756836 36.2908 0.00756836C37.2611 0.00756836 38.0503 0.793735 38.0503 1.76558V9.09713C38.0503 10.0675 37.2611 10.8566 36.2908 10.8566Z" fill="black"/>
<path d="M53.7989 19.798C53.3482 19.798 52.899 19.6257 52.5546 19.2828C51.8672 18.597 51.8672 17.4829 52.5546 16.7956L58.8573 10.4928C59.5447 9.80694 60.6573 9.80694 61.3446 10.4928C62.032 11.1801 62.032 12.2942 61.3446 12.98L55.0418 19.2828C54.6989 19.6257 54.2497 19.798 53.7989 19.798Z" fill="black"/>
<path d="M15.9795 19.798C15.5288 19.798 15.0781 19.6257 14.7352 19.2828L8.43088 12.98C7.74505 12.2942 7.74505 11.1801 8.43088 10.4928C9.11821 9.80694 10.2323 9.80694 10.9182 10.4928L17.2224 16.7956C17.9083 17.4829 17.9083 18.5985 17.2224 19.2828C16.8795 19.6257 16.4288 19.798 15.9795 19.798Z" fill="black"/>
<path d="M34.8894 70.0075C33.9175 70.0075 33.1299 69.2199 33.1299 68.248V60.9165C33.1299 59.9446 33.9175 59.157 34.8894 59.157C35.8597 59.157 36.6474 59.9446 36.6474 60.9165V68.248C36.6474 69.2199 35.8597 70.0075 34.8894 70.0075Z" fill="black"/>
<path d="M11.0767 60.0375C10.6275 60.0375 10.1768 59.8653 9.83386 59.5224C9.14653 58.8366 9.14653 57.721 9.83386 57.0336L16.1366 50.7308C16.824 50.0435 17.9366 50.0435 18.6239 50.7308C19.3112 51.4167 19.3112 52.5308 18.6239 53.2181L12.3211 59.5224C11.9782 59.8653 11.5275 60.0375 11.0767 60.0375Z" fill="black"/>
<path d="M61.505 60.0375C61.0558 60.0375 60.6051 59.8653 60.2607 59.5224L53.9579 53.2181C53.2705 52.5308 53.2705 51.4182 53.9579 50.7308C54.6452 50.0435 55.7578 50.0435 56.4452 50.7308L62.7479 57.0336C63.4353 57.721 63.4353 58.8336 62.7479 59.5224C62.405 59.8653 61.9558 60.0375 61.505 60.0375Z" fill="black"/>
<path d="M9.67505 36.9004H1.75951C0.787663 36.9004 0 36.1127 0 35.1409C0 34.1705 0.787663 33.3813 1.75951 33.3813H9.67505C10.6469 33.3813 11.4346 34.169 11.4346 35.1409C11.4331 36.1127 10.6469 36.9004 9.67505 36.9004Z" fill="black"/>
<path d="M69.4848 36.9004H60.1018C59.13 36.9004 58.3423 36.1127 58.3423 35.1409C58.3423 34.1705 59.13 33.3813 60.1018 33.3813H69.4848C70.4552 33.3813 71.2444 34.169 71.2444 35.1409C71.2444 36.1127 70.4552 36.9004 69.4848 36.9004Z" fill="black"/>
</svg>
