<svg width="24" height="22" viewBox="0 0 24 22" fill="none" xmlns="http://www.w3.org/2000/svg">
<path d="M0 13.02C0 13.26 0.0900002 13.47 0.28 13.64C0.44 13.83 0.65 13.92 0.91 13.92H15.6C15.89 13.92 16.13 14.02 16.33 14.22C16.53 14.42 16.63 14.67 16.63 14.96C16.63 15.25 16.53 15.49 16.33 15.68C16.13 15.87 15.89 15.97 15.59 15.97C15.3 15.97 15.05 15.87 14.86 15.68C14.7 15.5 14.5 15.42 14.26 15.42C14.01 15.42 13.8 15.51 13.62 15.68C13.44 15.85 13.35 16.06 13.35 16.29C13.35 16.54 13.44 16.75 13.63 16.92C14.19 17.47 14.85 17.75 15.59 17.75C16.37 17.75 17.04 17.48 17.6 16.94C18.16 16.4 18.43 15.75 18.43 14.97C18.43 14.19 18.15 13.53 17.59 12.97C17.03 12.41 16.36 12.13 15.59 12.13H0.91C0.66 12.13 0.45 12.22 0.27 12.39C0.09 12.56 0 12.77 0 13.02ZM0 9.74C0 9.97 0.0900002 10.17 0.28 10.35C0.45 10.53 0.66 10.61 0.91 10.61H20.95C21.73 10.61 22.4 10.34 22.96 9.79C23.52 9.25 23.8 8.59 23.8 7.82C23.8 7.05 23.52 6.38 22.96 5.83C22.4 5.28 21.73 5 20.95 5C20.18 5 19.53 5.27 19 5.8C18.82 5.96 18.73 6.18 18.73 6.47C18.73 6.73 18.82 6.94 18.99 7.1C19.16 7.26 19.37 7.34 19.62 7.34C19.86 7.34 20.07 7.26 20.25 7.1C20.44 6.89 20.67 6.79 20.95 6.79C21.24 6.79 21.48 6.89 21.68 7.09C21.88 7.29 21.98 7.53 21.98 7.82C21.98 8.11 21.88 8.35 21.68 8.54C21.48 8.73 21.24 8.83 20.95 8.83H0.91C0.66 8.83 0.45 8.92 0.27 9.09C0.09 9.28 0 9.49 0 9.74Z" fill="black"/>
</svg>
