<svg width="22" height="22" viewBox="0 0 22 22" fill="none" xmlns="http://www.w3.org/2000/svg">
<path d="M4 11.1C4 10.14 4.19 9.23 4.56 8.35C4.93 7.47 5.44 6.72 6.07 6.09C6.7 5.46 7.46 4.95 8.34 4.57C9.22 4.19 10.14 4 11.09 4H12.23C12.39 4.04 12.46 4.14 12.46 4.28L12.51 5.16C12.55 6.43 13 7.51 13.88 8.4C14.76 9.29 15.82 9.77 17.07 9.82L17.89 9.89C18.05 9.89 18.13 9.97 18.13 10.12V11.1C18.14 12.38 17.83 13.57 17.2 14.66C16.57 15.75 15.72 16.61 14.63 17.25C13.55 17.88 12.36 18.2 11.08 18.2C10.11 18.2 9.18 18.01 8.3 17.64C7.42 17.27 6.67 16.76 6.04 16.13C5.41 15.5 4.91 14.74 4.54 13.87C4.19 12.99 4 12.07 4 11.1ZM5.83 11.1C5.83 11.86 5.98 12.58 6.28 13.26C6.58 13.93 6.98 14.5 7.47 14.96C7.96 15.42 8.52 15.78 9.16 16.04C9.79 16.31 10.44 16.44 11.1 16.44C11.68 16.44 12.27 16.33 12.86 16.1C13.45 15.87 14 15.55 14.51 15.14C15.02 14.73 15.45 14.21 15.82 13.57C16.19 12.93 16.42 12.24 16.53 11.48C14.9 11.14 13.59 10.44 12.61 9.38C11.63 8.32 11.06 7.08 10.91 5.64C9.95 5.7 9.09 5.99 8.3 6.52C7.52 7.05 6.91 7.72 6.48 8.54C6.05 9.36 5.83 10.21 5.83 11.1Z" fill="black"/>
</svg>
