<svg width="27" height="22" viewBox="0 0 27 22" fill="none" xmlns="http://www.w3.org/2000/svg">
<path d="M0 16.99C0 17.89 0.22 18.72 0.66 19.48C1.1 20.24 1.7 20.84 2.46 21.28C3.22 21.72 4.04 21.94 4.93 21.94H15.76C16.65 21.94 17.48 21.72 18.24 21.28C19 20.84 19.61 20.24 20.05 19.48C20.49 18.72 20.72 17.89 20.72 16.99C20.72 16.33 20.58 15.66 20.3 14.99C21.06 14.07 21.44 12.96 21.44 11.69C21.44 10.98 21.3 10.3 21.03 9.65C20.76 9 20.38 8.45 19.91 7.98C19.44 7.51 18.89 7.13 18.24 6.86C17.59 6.58 16.91 6.45 16.2 6.45C14.72 6.45 13.43 7.03 12.32 8.19C11.55 7.75 10.65 7.53 9.62 7.53C8.21 7.53 6.97 7.97 5.89 8.84C4.81 9.71 4.11 10.83 3.81 12.19C2.69 12.45 1.78 13.02 1.07 13.92C0.36 14.82 0 15.84 0 16.99ZM1.71 16.99C1.71 16.15 1.99 15.43 2.55 14.82C3.11 14.21 3.81 13.86 4.65 13.76L5.15 13.73C5.27 13.73 5.34 13.67 5.34 13.55L5.41 13.01C5.55 11.93 6.02 11.02 6.82 10.3C7.62 9.57 8.56 9.21 9.63 9.21C10.73 9.21 11.69 9.58 12.5 10.31C13.32 11.04 13.77 11.94 13.87 13.02L13.94 13.6C13.96 13.71 14.03 13.77 14.15 13.77H15.76C16.64 13.77 17.4 14.09 18.04 14.73C18.68 15.37 19 16.12 19 17C19 17.91 18.68 18.68 18.05 19.32C17.42 19.96 16.65 20.28 15.77 20.28H4.93C4.05 20.28 3.3 19.96 2.66 19.31C2.03 18.66 1.71 17.89 1.71 16.99ZM8.41 4.72C8.41 4.96 8.49 5.17 8.65 5.35L9.31 5.99C9.56 6.18 9.77 6.26 9.95 6.24C10.16 6.24 10.34 6.15 10.5 5.98C10.66 5.81 10.74 5.6 10.74 5.36C10.74 5.12 10.65 4.92 10.48 4.77L9.89 4.11C9.71 3.95 9.51 3.87 9.28 3.87C9.04 3.87 8.83 3.95 8.66 4.12C8.49 4.28 8.41 4.48 8.41 4.72ZM13.75 9.15C14.44 8.48 15.26 8.15 16.2 8.15C17.19 8.15 18.03 8.49 18.72 9.18C19.41 9.87 19.76 10.7 19.76 11.69C19.76 12.31 19.59 12.93 19.25 13.53C18.28 12.57 17.12 12.09 15.76 12.09H15.44C15.19 11 14.63 10.02 13.75 9.15ZM15.38 3.87C15.38 4.13 15.46 4.33 15.61 4.49C15.76 4.65 15.96 4.72 16.2 4.72C16.46 4.72 16.66 4.64 16.82 4.49C16.98 4.33 17.05 4.13 17.05 3.87V1.82C17.05 1.58 16.97 1.39 16.81 1.23C16.65 1.07 16.45 1 16.2 1C15.96 1 15.77 1.08 15.61 1.23C15.45 1.38 15.38 1.58 15.38 1.82V3.87ZM20.9 6.16C20.9 6.42 20.97 6.62 21.12 6.78C21.33 6.94 21.54 7.02 21.74 7.02C21.92 7.02 22.12 6.94 22.33 6.78L23.76 5.35C23.92 5.17 24 4.96 24 4.71C24 4.47 23.92 4.27 23.76 4.11C23.6 3.95 23.4 3.87 23.17 3.87C22.93 3.87 22.74 3.95 22.59 4.11L21.12 5.54C20.97 5.73 20.9 5.93 20.9 6.16ZM21.69 18C21.69 18.24 21.77 18.45 21.94 18.63L22.59 19.26C22.74 19.42 22.93 19.5 23.17 19.5C23.41 19.5 23.61 19.42 23.77 19.25C23.93 19.08 24.01 18.88 24.01 18.63C24.01 18.41 23.93 18.21 23.77 18.05L23.12 17.4C22.96 17.24 22.77 17.16 22.55 17.16C22.31 17.16 22.11 17.24 21.95 17.4C21.78 17.56 21.69 17.76 21.69 18ZM23.16 11.69C23.16 11.92 23.25 12.11 23.42 12.27C23.58 12.43 23.79 12.51 24.03 12.51H26.07C26.3 12.51 26.49 12.43 26.65 12.28C26.81 12.13 26.88 11.93 26.88 11.69C26.88 11.45 26.8 11.25 26.65 11.09C26.5 10.93 26.3 10.84 26.07 10.84H24.03C23.79 10.84 23.59 10.92 23.42 11.09C23.24 11.26 23.16 11.46 23.16 11.69Z" fill="black"/>
</svg>
