<svg width="22" height="22" viewBox="0 0 22 22" fill="none" xmlns="http://www.w3.org/2000/svg">
<path fill-rule="evenodd" clip-rule="evenodd" d="M8.5 15.5351C9.60457 15.5351 10.5 14.6396 10.5 13.5351C10.5 12.7987 9.83333 11.5993 8.5 9.93699C7.16667 11.5993 6.5 12.7987 6.5 13.5351C6.5 14.6396 7.39543 15.5351 8.5 15.5351Z" fill="black"/>
<path fill-rule="evenodd" clip-rule="evenodd" d="M10.5 20.1985C11.3284 20.1985 12 19.527 12 18.6985C12 18.1463 11.5 17.2467 10.5 16C9.5 17.2467 9 18.1463 9 18.6985C9 19.527 9.67157 20.1985 10.5 20.1985Z" fill="black"/>
<path d="M14.9042 14.4845C14.9482 14.4604 14.9803 14.4207 14.9935 14.3742C15.0066 14.3277 14.9997 14.2781 14.9743 14.2364L14.6861 13.7636C14.6606 13.722 14.6186 13.6916 14.5694 13.6791C14.5203 13.6667 14.4679 13.6732 14.4238 13.6973L13.6466 14.1218C13.5553 14.1718 13.4804 14.1309 13.4804 14.0309V13.1818C13.4804 13.1336 13.4601 13.0874 13.4241 13.0533C13.3881 13.0192 13.3392 13 13.2882 13H12.7118C12.6608 13 12.6119 13.0192 12.5759 13.0533C12.5399 13.0874 12.5196 13.1336 12.5196 13.1818V14.0309C12.5196 14.1309 12.4447 14.1718 12.3534 14.1218L11.5762 13.6973C11.5321 13.6732 11.4797 13.6667 11.4306 13.6791C11.3814 13.6916 11.3394 13.722 11.3139 13.7636L11.0257 14.2364C11.0003 14.2781 10.9934 14.3277 11.0065 14.3742C11.0197 14.4207 11.0518 14.4604 11.0958 14.4845L11.8731 14.9091C11.893 14.9157 11.9102 14.928 11.9224 14.9443C11.9346 14.9606 11.9411 14.98 11.9411 15C11.9411 15.02 11.9346 15.0394 11.9224 15.0557C11.9102 15.072 11.893 15.0843 11.8731 15.0909L11.0958 15.5155C11.0518 15.5396 11.0197 15.5793 11.0065 15.6258C10.9934 15.6723 11.0003 15.7219 11.0257 15.7636L11.3139 16.2364C11.3394 16.278 11.3814 16.3084 11.4306 16.3209C11.4797 16.3333 11.5321 16.3268 11.5762 16.3027L12.3534 15.8782C12.4447 15.8282 12.5196 15.8691 12.5196 15.9691V16.8182C12.5196 16.8664 12.5399 16.9126 12.5759 16.9467C12.6119 16.9808 12.6608 17 12.7118 17H13.2882C13.3392 17 13.3881 16.9808 13.4241 16.9467C13.4601 16.9126 13.4804 16.8664 13.4804 16.8182V15.9691C13.4804 15.8691 13.5553 15.8282 13.6466 15.8782L14.4238 16.3027C14.4679 16.3268 14.5203 16.3333 14.5694 16.3209C14.6186 16.3084 14.6606 16.278 14.6861 16.2364L14.9743 15.7636C14.9997 15.7219 15.0066 15.6723 14.9935 15.6258C14.9803 15.5793 14.9482 15.5396 14.9042 15.5155L14.1269 15.0909C14.107 15.0843 14.0898 15.072 14.0776 15.0557C14.0654 15.0394 14.0589 15.02 14.0589 15C14.0589 14.98 14.0654 14.9606 14.0776 14.9443C14.0898 14.928 14.107 14.9157 14.1269 14.9091L14.9042 14.4845Z" fill="black"/>
<path d="M1 10.2472C1 9.12045 1.34582 8.11996 2.03746 7.24575C2.72911 6.37154 3.61287 5.79845 4.66955 5.55561C4.96734 4.22487 5.63977 3.13696 6.68684 2.28218C7.73391 1.42739 8.94428 1 10.3084 1C11.0865 1 11.7973 1.12627 12.4217 1.38854C12.4217 1.39825 12.4217 1.39825 12.4313 1.40797C13.2382 1.7188 13.9491 2.22389 14.5543 2.91355H14.5831C15.2363 3.62263 15.6686 4.4677 15.8991 5.45848H16.1969C17.2344 5.45848 18.1374 5.74017 18.9155 6.29383V6.28412C19.4246 6.6338 19.8569 7.06119 20.2027 7.57601C20.5485 8.09082 20.7791 8.6542 20.9039 9.26615C20.9424 9.47013 20.9616 9.63526 20.9808 9.77125V9.82953C20.9808 9.83924 20.9808 9.88781 20.9904 9.99466C21 10.1015 21 10.1792 21 10.2278V10.2569C21 11.1117 20.7983 11.9082 20.3852 12.6367C19.9817 13.3652 19.4246 13.9577 18.7137 14.3949C18.0125 14.832 17.2344 15.0651 16.389 15.0942C16.2642 15.0942 16.1969 15.0359 16.1969 14.9291V13.6275C16.1969 13.5012 16.2642 13.4429 16.389 13.4429C17.2152 13.4041 17.9068 13.0738 18.4832 12.4522C19.0596 11.8305 19.3477 11.102 19.3477 10.2569C19.3477 9.39242 19.0403 8.6542 18.4159 8.03254C17.8012 7.41088 17.0615 7.10005 16.1969 7.10005H14.6503C14.5351 7.10005 14.4774 7.04177 14.4774 6.93492L14.4006 6.36183C14.3045 5.39048 13.9011 4.55512 13.1806 3.84604C13.171 3.83633 13.171 3.82661 13.1614 3.8169C13.1518 3.80719 13.1422 3.79747 13.1422 3.78776C13.1326 3.77805 13.123 3.76833 13.1037 3.76833C13.1037 3.74891 13.0941 3.73919 13.0845 3.73919C12.3833 3.09811 11.5668 2.72899 10.6254 2.65129C10.5581 2.64157 10.4525 2.64157 10.2988 2.64157C9.24208 2.64157 8.32949 3.00097 7.55139 3.71005C6.77329 4.41914 6.33141 5.30306 6.23535 6.35211L6.1585 6.92521C6.12968 7.01263 6.05283 7.06119 5.94717 7.06119L5.47646 7.09033C4.66955 7.18747 3.98751 7.53715 3.44957 8.12968C2.91162 8.7222 2.64265 9.43128 2.64265 10.2472V10.2861H2.67147C2.68108 10.7523 2.77714 11.1894 2.95965 11.5974C3.15178 12.0151 3.40154 12.3647 3.72815 12.6561C3.92987 12.831 4.16042 12.9864 4.439 13.1224V13.1321C4.82325 13.3167 5.20749 13.4235 5.60135 13.4429C5.70701 13.4429 5.76465 13.5012 5.76465 13.6178V14.9194C5.76465 15.0262 5.70701 15.0845 5.60135 15.0845C5.10183 15.0554 4.63112 14.9582 4.17964 14.7931V14.8028C3.38232 14.5211 2.70029 14.0549 2.15274 13.4138C1.60519 12.7727 1.24015 12.0151 1.08646 11.17V11.1408C1.07685 11.1311 1.07685 11.1214 1.07685 11.102C1.01921 10.8494 1 10.558 1 10.2472Z" fill="black"/>
</svg>
