<svg width="24" height="22" viewBox="0 0 24 22" fill="none" xmlns="http://www.w3.org/2000/svg">
<path d="M1.00136e-05 14.3C1.00136e-05 14.54 0.0900102 14.75 0.28001 14.92C0.44001 15.11 0.65001 15.2 0.91001 15.2H15.6C15.89 15.2 16.13 15.3 16.33 15.5C16.53 15.7 16.63 15.95 16.63 16.24C16.63 16.53 16.53 16.77 16.33 16.96C16.13 17.15 15.89 17.25 15.59 17.25C15.3 17.25 15.05 17.15 14.86 16.96C14.7 16.78 14.5 16.7 14.26 16.7C14.01 16.7 13.8 16.79 13.62 16.96C13.44 17.13 13.35 17.34 13.35 17.57C13.35 17.82 13.44 18.03 13.63 18.2C14.19 18.75 14.85 19.03 15.59 19.03C16.37 19.03 17.04 18.76 17.6 18.22C18.16 17.68 18.43 17.03 18.43 16.25C18.43 15.47 18.15 14.81 17.59 14.25C17.03 13.69 16.36 13.41 15.59 13.41H0.91001C0.66001 13.41 0.45001 13.5 0.27001 13.67C0.09001 13.84 1.00136e-05 14.05 1.00136e-05 14.3ZM1.00136e-05 11.02C1.00136e-05 11.25 0.0900102 11.45 0.28001 11.63C0.45001 11.81 0.66001 11.89 0.91001 11.89H20.95C21.73 11.89 22.4 11.62 22.96 11.07C23.52 10.53 23.8 9.87001 23.8 9.10001C23.8 8.33001 23.52 7.66001 22.96 7.11001C22.4 6.56001 21.73 6.28001 20.95 6.28001C20.18 6.28001 19.53 6.55001 19 7.08001C18.82 7.24001 18.73 7.46001 18.73 7.75001C18.73 8.01001 18.82 8.22001 18.99 8.38001C19.16 8.54001 19.37 8.62001 19.62 8.62001C19.86 8.62001 20.07 8.54001 20.25 8.38001C20.44 8.17001 20.67 8.07001 20.95 8.07001C21.24 8.07001 21.48 8.17001 21.68 8.37001C21.88 8.57001 21.98 8.81001 21.98 9.10001C21.98 9.39001 21.88 9.63001 21.68 9.82001C21.48 10.01 21.24 10.11 20.95 10.11H0.91001C0.66001 10.11 0.45001 10.2 0.27001 10.37C0.09001 10.56 1.00136e-05 10.77 1.00136e-05 11.02Z" fill="black"/>
<path d="M0 7.73C0 7.49 0.0900007 7.28 0.280001 7.11C0.440001 6.92 0.65 6.83 0.91 6.83H15.6C15.89 6.83 16.13 6.73 16.33 6.53C16.53 6.33 16.63 6.08 16.63 5.79C16.63 5.5 16.53 5.26 16.33 5.07C16.13 4.88 15.89 4.78 15.59 4.78C15.3 4.78 15.05 4.88 14.86 5.07C14.7 5.25 14.5 5.33 14.26 5.33C14.01 5.33 13.8 5.24 13.62 5.07C13.44 4.9 13.35 4.69 13.35 4.46C13.35 4.21 13.44 4 13.63 3.83C14.19 3.28 14.85 3 15.59 3C16.37 3 17.04 3.27 17.6 3.81C18.16 4.35 18.43 5 18.43 5.78C18.43 6.56 18.15 7.22 17.59 7.78C17.03 8.34 16.36 8.62 15.59 8.62H8.25H0.91C0.66 8.62 0.45 8.53 0.27 8.36C0.0900005 8.19 0 7.98 0 7.73Z" fill="black"/>
</svg>
